<svg width="56" height="56" viewBox="0 0 56 56" fill="none" xmlns="http://www.w3.org/2000/svg">
<rect width="56" height="56" rx="28" fill="#24221F"/>
<path d="M43.9552 48.7122C44.6502 47.5071 45 46.0341 45 44.2933C45 41.8852 44.2887 39.6936 42.8708 37.7229C41.4506 35.75 39.5383 34.5337 37.1293 34.0717C36.488 33.9691 36.0309 33.9177 35.7651 33.9177C34.2119 33.9177 32.8873 34.3395 31.7889 35.1854C29.9093 36.6338 28.5357 38.4349 27.1528 40.2984L27.316 40.035C26.5162 41.3496 25.4947 42.5592 24.1981 43.4385C22.9015 44.3178 21.3157 44.849 19.7299 44.753C18.2001 44.6615 16.7192 43.9764 15.6954 42.885C13.6805 40.7403 13.6456 37.2275 15.3433 34.9086C17.8619 31.5676 22.6146 30.4227 26.74 29.6751C30.2055 28.8761 33.7152 29.2444 37.1783 28.2222C38.3327 27.8807 39.4544 27.3161 40.4502 26.6644C41.3993 26.044 42.2622 25.2963 42.9711 24.4304C46.1031 20.6163 44.8041 14.865 40.9236 12.0261C39.0136 10.629 36.4903 9.83452 34.1093 10.4393C31.6793 11.0575 29.8603 12.9501 28.2768 14.8203C26.6934 16.6906 25.1053 18.6969 22.8245 19.7124C21.2294 20.4221 19.3451 20.5739 17.6893 20.0048C16.0336 19.4357 14.6507 18.1167 14.1703 16.4986C13.6899 14.8784 14.1866 13.0014 15.4995 11.8811C16.2295 11.2584 17.153 10.8879 17.9575 10.3545C18.7621 9.82113 19.4897 9.02439 19.485 8.08704C19.4804 7.17201 18.7178 6.3507 17.7989 6.09851C16.8801 5.84632 15.861 6.09852 15.0774 6.62522C14.2939 7.15192 13.7248 7.92412 13.2981 8.74318C12.209 10.8388 12.0061 13.3183 12.6125 15.5858C13.2211 17.8533 14.618 19.9021 16.4557 21.4443C18.5009 23.1583 21.2644 24.2809 23.9369 23.81C26.1454 23.4216 28.0133 22.0156 29.5548 20.4534C31.0963 18.8911 32.4186 17.1258 34.0953 15.6974C35.2637 14.702 36.6326 13.8674 38.1648 13.5728C39.6969 13.2782 41.4133 13.5973 42.5327 14.6418C44.7248 16.6861 43.9996 20.585 42.3228 22.703C42.2948 22.7387 42.2645 22.7744 42.2342 22.8124C42.1712 22.8905 42.1036 22.9664 42.0383 23.0422C40.126 25.1892 37.1713 26.3296 34.2842 26.5774C33.9694 26.6042 33.6546 26.6198 33.3397 26.6265C26.4439 27.0483 17.771 27.8227 13.6642 33.9378C10.966 37.955 13.5196 43.1283 17.4841 45.3601C19.7882 46.6568 22.6543 46.9893 25.2172 46.2573C27.8897 45.4918 29.8533 43.4631 31.7446 41.6107C33.2115 40.1734 34.7693 38.7205 36.7142 37.897C38.4189 37.1739 40.7906 37.1806 42.1409 38.5688C42.8638 39.312 43.2253 40.2984 43.2253 41.5281C43.2253 42.5012 43.0248 43.2577 42.6236 43.7956C42.2225 44.3335 41.5929 44.8847 40.737 45.4471C40.0934 45.9091 39.613 46.3309 39.2911 46.7148C38.9693 47.0986 38.8084 47.5718 38.8084 48.1364C38.8084 48.7524 39.0206 49.3014 39.452 49.7879C39.8788 50.2745 40.4945 50.5177 41.299 50.5177C42.3694 50.5177 43.2533 49.9152 43.9506 48.7122H43.9552Z" fill="#F7F3E3"/>
</svg>
