<svg width="200" height="64" viewBox="0 0 200 64" fill="none" xmlns="http://www.w3.org/2000/svg">
<path d="M53.3602 35.2018C52.0567 36.4719 50.0678 37.1058 47.3948 37.1058H42.9907V46.7416H40V23.6606H47.396C49.9811 23.6606 51.948 24.2896 53.2955 25.5487C54.643 26.8065 55.3161 28.43 55.3161 30.4164C55.3161 32.4029 54.6637 33.9328 53.3602 35.2018ZM51.0769 33.5291C51.8661 32.8005 52.2595 31.7629 52.2595 30.4164C52.2595 27.5684 50.6371 26.1444 47.3948 26.1444H42.9907V34.6221H47.3948C49.0599 34.6221 50.2877 34.2577 51.0757 33.5291H51.0769Z" fill="#F7F3E3"/>
<path d="M72.3095 28.5948V46.7416H69.3189V44.0597C68.7484 44.9865 67.9543 45.7102 66.9354 46.2284C65.9165 46.7465 64.7926 47.0062 63.566 47.0062C62.1636 47.0062 60.904 46.7133 59.7862 46.1287C58.6683 45.5441 57.7863 44.6665 57.14 43.496C56.4938 42.3255 56.17 40.9027 56.17 39.2239V28.5948H59.1277V38.8264C59.1277 40.6147 59.5761 41.9895 60.4752 42.9495C61.3731 43.9096 62.6009 44.3908 64.1561 44.3908C65.7113 44.3908 67.016 43.8936 67.936 42.9003C68.8559 41.9071 69.3164 40.4609 69.3164 38.5618V28.5948H72.3071H72.3095Z" fill="#F7F3E3"/>
<path d="M79.9182 29.124C80.8931 28.5504 82.0818 28.2637 83.4843 28.2637V31.3763H82.6951C79.3428 31.3763 77.6667 33.209 77.6667 36.873V46.7415H74.676V28.5948H77.6667V31.5413C78.1932 30.5037 78.9433 29.6988 79.9182 29.124Z" fill="#F7F3E3"/>
<path d="M100.575 38.7944H86.1792C86.2892 40.5827 86.8964 41.9785 88.0032 42.984C89.1088 43.9883 90.4514 44.4905 92.0298 44.4905C93.3224 44.4905 94.4011 44.1877 95.2673 43.5797C96.1322 42.9729 96.7406 42.1618 97.0912 41.1452H100.313C99.8302 42.8892 98.8663 44.3083 97.4199 45.4C95.9734 46.493 94.1763 47.0395 92.0298 47.0395C90.3207 47.0395 88.7924 46.653 87.4449 45.8801C86.0974 45.1071 85.0394 44.0093 84.2734 42.5852C83.5062 41.1612 83.1226 39.5107 83.1226 37.635C83.1226 35.7593 83.4952 34.1137 84.2404 32.7008C84.9857 31.2878 86.0314 30.201 87.3789 29.4392C88.7264 28.6773 90.2767 28.297 92.0298 28.297C93.7829 28.297 95.2514 28.6724 96.5659 29.4232C97.8804 30.174 98.8944 31.2054 99.6066 32.5186C100.318 33.8331 100.674 35.3162 100.674 36.9728C100.674 37.5476 100.641 38.1544 100.575 38.7944ZM96.8286 33.3802C96.324 32.5518 95.6399 31.9229 94.7737 31.4921C93.9075 31.0614 92.9498 30.846 91.8979 30.846C90.3855 30.846 89.0978 31.3321 88.0362 32.3032C86.9733 33.2743 86.3649 34.6208 86.2122 36.3427H97.5848C97.5848 35.1956 97.3331 34.2072 96.8286 33.3789V33.3802Z" fill="#F7F3E3"/>
<path d="M119.423 33.4638C120.474 34.5319 121 35.8927 121 37.5437C121 37.999 120.959 38.4691 120.876 38.9529C120.626 40.377 120.045 41.6869 119.132 42.8827C118.219 44.0785 117.098 45.0337 115.768 45.7445C114.439 46.4565 113.027 46.8125 111.532 46.8125C110.701 46.8125 109.802 46.7703 108.832 46.6847C108.501 46.6562 108.098 46.6277 107.628 46.5991C107.156 46.5706 106.63 46.557 106.049 46.557L103.434 46.5991C102.99 46.6277 102.381 46.6413 101.607 46.6413C101.524 46.6413 101.489 46.5557 101.503 46.3845C101.516 46.2134 101.551 46.1278 101.607 46.1278C102.547 46.1278 103.261 46.0496 103.745 45.8933C104.228 45.737 104.596 45.4529 104.844 45.0386C105.094 44.6256 105.287 43.9917 105.426 43.137L108.831 23.3578C108.914 22.8454 108.955 22.4175 108.955 22.0764C108.955 21.4214 108.761 20.9872 108.374 20.7739C107.986 20.5605 107.238 20.4538 106.132 20.4538C106.021 20.4538 105.973 20.3682 105.986 20.197C106 20.0259 106.048 19.9403 106.132 19.9403L108.042 19.9824C109.094 20.0395 109.911 20.068 110.493 20.068C110.991 20.068 111.44 20.0544 111.842 20.0259C112.243 19.9973 112.595 19.9688 112.901 19.9403C113.704 19.8547 114.396 19.8125 114.977 19.8125C116.997 19.8125 118.506 20.2181 119.504 21.0294C120.5 21.8407 120.999 22.931 120.999 24.2968C120.999 24.6962 120.958 25.1378 120.875 25.6216C120.57 27.0171 119.92 28.2204 118.924 29.2314C117.926 30.2423 116.64 31.0325 115.061 31.6019C116.916 31.7731 118.369 32.3921 119.422 33.4601L119.423 33.4638ZM118.219 37.9705C118.219 36.2623 117.735 34.9375 116.766 33.9972C115.797 33.057 114.385 32.5732 112.53 32.5447C111.7 32.5161 110.73 32.5447 109.623 32.6302L107.837 43.2672C107.754 43.6381 107.712 43.9942 107.712 44.3353C107.712 44.9903 107.947 45.4455 108.419 45.7023C108.889 45.9591 109.747 46.0868 110.993 46.0868C113.013 46.0868 114.619 45.5038 115.81 44.3353C117 43.168 117.762 41.6013 118.094 39.6364C118.177 39.0385 118.219 38.4828 118.219 37.9705ZM109.831 31.6056L111.492 31.6478C113.458 31.6478 115.028 31.0921 116.206 29.9818C117.383 28.8716 118.122 27.419 118.427 25.6241C118.51 25.1403 118.551 24.6702 118.551 24.2137C118.551 23.0464 118.198 22.121 117.492 21.4375C116.787 20.754 115.672 20.4116 114.15 20.4116C113.485 20.4116 112.98 20.4836 112.634 20.625C112.288 20.7677 111.997 21.0592 111.762 21.5008C111.527 21.9424 111.34 22.6333 111.202 23.5724L109.832 31.6031L109.831 31.6056Z" fill="#F7F3E3"/>
<path d="M122.864 46.3721C122.622 46.0789 122.5 45.5838 122.5 44.8843C122.5 44.2979 122.586 43.5717 122.757 42.7055L126.995 20.5016C127.052 20.279 127.08 19.9712 127.08 19.5807C127.08 18.8824 126.794 18.5333 126.224 18.5333C125.767 18.5333 125.082 18.7425 124.17 19.1622H124.084C123.97 19.1622 123.892 19.0929 123.849 18.953C123.807 18.8131 123.842 18.7291 123.956 18.7011L129.477 16.0625H129.563C129.676 16.0625 129.784 16.1039 129.884 16.1878C129.983 16.2717 130.019 16.3411 129.991 16.397L125.026 42.7067C124.912 43.3211 124.855 43.7116 124.855 43.8795C124.855 44.2979 124.933 44.6118 125.09 44.8223C125.246 45.0315 125.454 45.1361 125.71 45.1361C126.309 45.1361 127.236 44.4938 128.492 43.2092C128.549 43.1532 128.605 43.1252 128.663 43.1252C128.749 43.1252 128.82 43.1739 128.877 43.2724C128.934 43.371 128.919 43.461 128.835 43.5449C127.864 44.6629 127.001 45.4865 126.245 46.0169C125.488 46.5473 124.754 46.8125 124.042 46.8125C123.5 46.8125 123.108 46.6653 122.865 46.3721H122.864Z" fill="#F7F3E3"/>
<path d="M130.844 46.3702C130.595 46.0757 130.472 45.5919 130.472 44.9186C130.472 44.4983 130.568 43.7554 130.761 42.6888L132.457 33.9366C132.54 33.5163 132.581 33.1376 132.581 32.8003C132.581 31.9023 132.305 31.4539 131.753 31.4539C131.423 31.4539 131.001 31.6225 130.492 31.9585C129.981 32.2957 129.45 32.7722 128.899 33.3893C128.871 33.4174 128.829 33.4308 128.774 33.4308C128.691 33.4308 128.616 33.3819 128.547 33.283C128.477 33.1852 128.486 33.1082 128.567 33.052C129.532 31.9304 130.402 31.1093 131.173 30.59C131.945 30.0719 132.676 29.8117 133.365 29.8117C133.862 29.8117 134.227 29.9583 134.462 30.254C134.696 30.5485 134.814 31.0323 134.814 31.7056C134.814 32.2383 134.731 32.9543 134.565 33.8511L132.869 42.6875C132.786 43.136 132.746 43.5147 132.746 43.8239C132.746 44.6938 133.007 45.1288 133.531 45.1288C134.193 45.1288 135.13 44.5118 136.345 43.2777C136.4 43.2215 136.455 43.1934 136.51 43.1934C136.593 43.1934 136.662 43.2423 136.717 43.3412C136.772 43.4402 136.758 43.5306 136.676 43.6149C135.738 44.7085 134.897 45.5161 134.152 46.0342C133.407 46.5535 132.676 46.8125 131.96 46.8125C131.464 46.8125 131.091 46.6647 130.843 46.3702H130.844ZM133.264 24.3635C132.947 24.0409 132.789 23.5998 132.789 23.0378C132.789 22.505 132.947 22.0847 133.264 21.7756C133.582 21.4677 134.015 21.3125 134.568 21.3125C135.12 21.3125 135.547 21.4665 135.851 21.7756C136.154 22.0847 136.306 22.505 136.306 23.0378C136.306 23.5998 136.155 24.0409 135.851 24.3635C135.547 24.686 135.119 24.8473 134.568 24.8473C134.016 24.8473 133.582 24.686 133.264 24.3635Z" fill="#F7F3E3"/>
<path d="M159.027 30.8632C158.377 30.4969 157.583 30.3125 156.644 30.3125C155.346 30.3125 154.165 30.6874 153.102 31.4348C152.039 32.1835 151.383 33.1915 151.134 34.4614C151.078 34.7994 151.051 35.0404 151.051 35.1805C151.051 35.9992 151.278 36.6975 151.734 37.2765C152.515 38.2673 153.486 38.9913 154.491 39.7203L154.349 39.6343C155.057 40.0559 155.709 40.5943 156.184 41.2778C156.658 41.9613 156.944 42.7972 156.892 43.6332C156.843 44.4396 156.473 45.2202 155.885 45.7598C154.729 46.8219 152.835 46.8404 151.585 45.9455C149.784 44.6178 149.167 42.1125 148.764 39.9379C148.333 38.1112 148.531 36.2611 147.98 34.4356C147.796 33.8271 147.492 33.2358 147.14 32.7109C146.806 32.2105 146.403 31.7557 145.936 31.382C143.88 29.731 140.779 30.4158 139.249 32.4613C138.496 33.4681 138.067 34.7982 138.393 36.0533C138.727 37.3342 139.747 38.2931 140.755 39.1278C141.763 39.9625 142.845 40.7996 143.393 42.0019C143.775 42.8427 143.857 43.836 143.55 44.7088C143.243 45.5816 142.532 46.3106 141.66 46.5638C140.786 46.817 139.775 46.5552 139.171 45.8631C138.835 45.4783 138.635 44.9915 138.348 44.5674C138.06 44.1433 137.63 43.7598 137.125 43.7622C136.632 43.7647 136.189 44.1667 136.053 44.651C135.917 45.1354 136.053 45.6726 136.337 46.0856C136.621 46.4986 137.037 46.7986 137.479 47.0236C138.609 47.5976 139.945 47.7046 141.168 47.385C142.39 47.0641 143.495 46.3278 144.326 45.3591C145.25 44.281 145.855 42.8243 145.602 41.4155C145.392 40.2514 144.634 39.2667 143.792 38.4541C142.95 37.6416 141.998 36.9446 141.228 36.0607C140.691 35.4448 140.241 34.7232 140.083 33.9156C139.924 33.1079 140.096 32.2032 140.659 31.6131C141.761 30.4576 143.863 30.8399 145.005 31.7237C145.024 31.7385 145.043 31.7545 145.064 31.7704C145.106 31.8036 145.147 31.8393 145.188 31.8737C146.345 32.8817 146.96 34.4392 147.093 35.9611C147.108 36.1271 147.116 36.293 147.12 36.459C147.347 40.094 147.765 44.6658 151.062 46.8306C153.227 48.2528 156.016 46.9068 157.219 44.817C157.919 43.6024 158.098 42.0916 157.703 40.7406C157.29 39.3318 156.197 38.2968 155.198 37.2998C154.423 36.5266 153.64 35.7054 153.196 34.6802C152.806 33.7816 152.81 32.5314 153.558 31.8196C153.959 31.4385 154.491 31.248 155.154 31.248C155.678 31.248 156.086 31.3537 156.376 31.5652C156.666 31.7766 156.963 32.1085 157.266 32.5597C157.515 32.8989 157.743 33.1522 157.95 33.3218C158.157 33.4915 158.412 33.5763 158.716 33.5763C159.048 33.5763 159.344 33.4644 159.607 33.237C159.869 33.012 160 32.6875 160 32.2634C160 31.6991 159.675 31.2332 159.027 30.8657V30.8632Z" fill="#F7F3E3"/>
</svg>
