<svg width="313" height="80" viewBox="0 0 313 80" fill="none" xmlns="http://www.w3.org/2000/svg">
<path d="M34.0708 46.434C30.9233 49.4824 26.1209 51.0037 19.6667 51.0037H9.03249V74.1297H1.81128V18.7354H19.6696C25.9115 18.7354 30.6607 20.2448 33.9144 23.2666C37.1681 26.2855 38.7935 30.1817 38.7935 34.9493C38.7935 39.7169 37.2182 43.3886 34.0708 46.434ZM28.5575 42.4197C30.4631 40.671 31.413 38.1808 31.413 34.9493C31.413 28.114 27.4956 24.6963 19.6667 24.6963H9.03249V45.0427H19.6667C23.6873 45.0427 26.6519 44.1684 28.5546 42.4197H28.5575Z" fill="#24221F"/>
<path d="M79.8258 30.5776V74.1299H72.6045V67.6933C71.227 69.9176 69.3096 71.6545 66.8494 72.8981C64.3892 74.1417 61.6754 74.7649 58.7137 74.7649C55.3273 74.7649 52.286 74.0619 49.5869 72.6588C46.8878 71.2557 44.758 69.1496 43.1976 66.3404C41.6371 63.5313 40.8554 60.1166 40.8554 56.0875V30.5776H47.997V55.1334C47.997 59.4254 49.0796 62.7249 51.2506 65.0289C53.4188 67.3329 56.3834 68.4879 60.1385 68.4879C63.8937 68.4879 67.0441 67.2945 69.2653 64.9108C71.4866 62.527 72.5986 59.0561 72.5986 54.4983V30.5776H79.8199H79.8258Z" fill="#24221F"/>
<path d="M98.1974 31.8475C100.551 30.471 103.422 29.7827 106.808 29.7827V37.2531H104.902C96.808 37.2531 92.7609 41.6515 92.7609 50.4452V74.1295H85.5396V30.5773H92.7609V37.6489C94.0322 35.1588 95.8434 33.227 98.1974 31.8475Z" fill="#24221F"/>
<path d="M148.076 55.0566H113.315C113.581 59.3486 115.047 62.6983 117.719 65.1116C120.389 67.522 123.631 68.7272 127.442 68.7272C130.563 68.7272 133.168 68.0005 135.259 66.5413C137.348 65.085 138.817 63.1384 139.663 60.6985H147.442C146.277 64.8842 143.949 68.29 140.457 70.9101C136.964 73.5332 132.625 74.8447 127.442 74.8447C123.315 74.8447 119.625 73.9172 116.371 72.0621C113.118 70.2071 110.563 67.5722 108.714 64.1546C106.861 60.7369 105.935 56.7757 105.935 52.274C105.935 47.7723 106.834 43.8229 108.634 40.4318C110.433 37.0408 112.958 34.4325 116.212 32.604C119.466 30.7755 123.209 29.8628 127.442 29.8628C131.675 29.8628 135.221 30.7637 138.395 32.5656C141.569 34.3675 144.017 36.8428 145.737 39.9947C147.454 43.1494 148.315 46.7089 148.315 50.6848C148.315 52.0643 148.236 53.5205 148.076 55.0566ZM139.029 42.0624C137.811 40.0744 136.159 38.565 134.067 37.5311C131.976 36.4972 129.663 35.9803 127.123 35.9803C123.472 35.9803 120.362 37.1471 117.799 39.4777C115.233 41.8083 113.764 45.0399 113.395 49.1724H140.855C140.855 46.4194 140.247 44.0474 139.029 42.0594V42.0624Z" fill="#24221F"/>
<path d="M193.585 42.2632C196.124 44.8265 197.393 48.0924 197.393 52.055C197.393 53.1476 197.294 54.2759 197.093 55.437C196.491 58.8547 195.087 61.9985 192.883 64.8685C190.679 67.7384 187.972 70.0308 184.76 71.7367C181.552 73.4456 178.142 74.3 174.532 74.3C172.526 74.3 170.354 74.1988 168.013 73.9934C167.212 73.9249 166.24 73.8564 165.104 73.7879C163.966 73.7195 162.696 73.6867 161.293 73.6867L154.978 73.7879C153.906 73.8564 152.436 73.8892 150.567 73.8892C150.366 73.8892 150.282 73.6837 150.316 73.2729C150.348 72.8621 150.433 72.6566 150.567 72.6566C152.838 72.6566 154.562 72.4691 155.729 72.094C156.897 71.7188 157.785 71.0371 158.384 70.0427C158.987 69.0513 159.453 67.53 159.788 65.4788L168.01 18.0086C168.211 16.7791 168.31 15.752 168.31 14.9332C168.31 13.3613 167.841 12.3193 166.906 11.8073C165.969 11.2952 164.164 11.0392 161.494 11.0392C161.226 11.0392 161.11 10.8337 161.142 10.4229C161.174 10.0121 161.29 9.80664 161.494 9.80664L166.106 9.90786C168.645 10.0448 170.619 10.1133 172.022 10.1133C173.225 10.1133 174.311 10.0805 175.28 10.0121C176.25 9.94359 177.1 9.87512 177.836 9.80664C179.776 9.60122 181.447 9.5 182.85 9.5C187.727 9.5 191.372 10.4735 193.78 12.4206C196.185 14.3676 197.39 16.9845 197.39 20.2623C197.39 21.2209 197.291 22.2808 197.091 23.4419C196.354 26.7911 194.785 29.6789 192.38 32.1053C189.972 34.5316 186.865 36.4281 183.054 37.7946C187.532 38.2054 191.04 39.691 193.582 42.2543L193.585 42.2632ZM190.679 53.0791C190.679 48.9796 189.509 45.8 187.171 43.5434C184.83 41.2867 181.421 40.1256 176.943 40.0572C174.937 39.9887 172.596 40.0572 169.923 40.2626L165.611 65.7914C165.41 66.6816 165.308 67.536 165.308 68.3547C165.308 69.9266 165.876 71.0192 167.014 71.6355C168.15 72.2518 170.223 72.5584 173.23 72.5584C178.107 72.5584 181.985 71.1591 184.862 68.3547C187.736 65.5532 189.576 61.7931 190.377 57.0774C190.577 55.6424 190.679 54.3086 190.679 53.0791ZM170.424 37.8035L174.436 37.9047C179.182 37.9047 182.972 36.571 185.817 33.9064C188.659 31.2419 190.443 27.7557 191.18 23.4478C191.381 22.2867 191.48 21.1584 191.48 20.0628C191.48 17.2614 190.627 15.0404 188.924 13.4C187.22 11.7596 184.527 10.9379 180.853 10.9379C179.249 10.9379 178.029 11.1106 177.193 11.45C176.357 11.7924 175.656 12.492 175.088 13.5519C174.52 14.6117 174.069 16.27 173.734 18.5237L170.427 37.7975L170.424 37.8035Z" fill="#24221F"/>
<path d="M201.894 73.2431C201.309 72.5395 201.015 71.3512 201.015 69.6724C201.015 68.2651 201.222 66.522 201.636 64.4433L211.868 11.1538C212.006 10.6195 212.075 9.88084 212.075 8.94363C212.075 7.26775 211.385 6.42981 210.008 6.42981C208.903 6.42981 207.25 6.93199 205.048 7.93927H204.841C204.565 7.93927 204.376 7.77285 204.274 7.43709C204.172 7.10133 204.256 6.89987 204.532 6.83272L217.863 0.5H218.07C218.343 0.5 218.604 0.59927 218.844 0.800726C219.084 1.00218 219.171 1.1686 219.102 1.3029L207.115 64.4462C206.839 65.9206 206.701 66.8578 206.701 67.2607C206.701 68.2651 206.89 69.0183 207.268 69.5235C207.646 70.0256 208.147 70.2767 208.765 70.2767C210.212 70.2767 212.45 68.7352 215.483 65.652C215.621 65.5177 215.756 65.4505 215.897 65.4505C216.104 65.4505 216.275 65.5673 216.413 65.8038C216.551 66.0403 216.515 66.2564 216.311 66.4578C213.968 69.141 211.883 71.1176 210.059 72.3905C208.231 73.6635 206.458 74.3 204.739 74.3C203.431 74.3 202.482 73.9467 201.897 73.2431H201.894Z" fill="#24221F"/>
<path d="M221.162 73.2386C220.562 72.5318 220.263 71.3706 220.263 69.7548C220.263 68.7461 220.495 66.9631 220.962 64.4031L225.058 43.3981C225.258 42.3893 225.357 41.4802 225.357 40.6709C225.357 38.5155 224.69 37.4393 223.358 37.4393C222.561 37.4393 221.542 37.844 220.313 38.6504C219.08 39.4598 217.798 40.6034 216.466 42.0843C216.4 42.1518 216.298 42.184 216.165 42.184C215.965 42.184 215.782 42.0667 215.616 41.8292C215.448 41.5946 215.469 41.4099 215.666 41.275C217.995 38.583 220.095 36.6124 221.957 35.3661C223.822 34.1228 225.586 33.4981 227.251 33.4981C228.449 33.4981 229.331 33.85 229.899 34.5597C230.465 35.2664 230.749 36.4277 230.749 38.0434C230.749 39.322 230.549 41.0404 230.148 43.1928L226.053 64.4002C225.853 65.4764 225.754 66.3854 225.754 67.1274C225.754 69.2153 226.386 70.2592 227.651 70.2592C229.249 70.2592 231.512 68.7783 234.444 65.8166C234.578 65.6817 234.711 65.6142 234.845 65.6142C235.045 65.6142 235.21 65.7315 235.343 65.969C235.477 66.2066 235.442 66.4236 235.245 66.6259C232.979 69.2504 230.949 71.1888 229.151 72.4321C227.352 73.6784 225.586 74.3001 223.857 74.3001C222.659 74.3001 221.76 73.9453 221.16 73.2386H221.162ZM227.007 20.4224C226.241 19.6482 225.858 18.5896 225.858 17.2407C225.858 15.9622 226.241 14.9534 227.007 14.2115C227.773 13.4725 228.82 13.1001 230.154 13.1001C231.489 13.1001 232.518 13.4696 233.252 14.2115C233.983 14.9534 234.351 15.9622 234.351 17.2407C234.351 18.5896 233.986 19.6482 233.252 20.4224C232.518 21.1966 231.486 21.5836 230.154 21.5836C228.823 21.5836 227.773 21.1966 227.007 20.4224Z" fill="#24221F"/>
<path d="M289.212 36.0214C287.643 35.1423 285.726 34.6997 283.46 34.6997C280.325 34.6997 277.472 35.5995 274.907 37.3933C272.339 39.1901 270.756 41.6093 270.154 44.657C270.021 45.4683 269.954 46.0466 269.954 46.3829C269.954 48.3478 270.503 50.0236 271.604 51.4132C273.489 53.7912 275.834 55.5289 278.26 57.2784L277.917 57.0719C279.628 58.0839 281.203 59.3761 282.347 61.0165C283.492 62.6569 284.183 64.6631 284.058 66.6693C283.939 68.6047 283.047 70.4781 281.627 71.7733C278.835 74.3224 274.262 74.3666 271.244 72.2188C266.895 69.0325 265.404 63.0197 264.431 57.8006C263.391 53.4165 263.87 48.9763 262.54 44.595C262.095 43.1346 261.36 41.7155 260.512 40.4558C259.704 39.255 258.731 38.1634 257.604 37.2665C252.639 33.3042 245.152 34.9475 241.457 39.8569C239.638 42.2732 238.604 45.4654 239.391 48.4777C240.196 51.5519 242.659 53.8531 245.094 55.8564C247.529 57.8597 250.14 59.8688 251.462 62.7542C252.386 64.7722 252.584 67.1561 251.843 69.2508C251.102 71.3455 249.385 73.0951 247.279 73.7028C245.17 74.3106 242.726 73.6822 241.268 72.0211C240.457 71.0977 239.975 69.9294 239.281 68.9115C238.586 67.8937 237.549 66.9732 236.329 66.9791C235.138 66.985 234.069 67.9497 233.741 69.1121C233.412 70.2746 233.741 71.5638 234.426 72.5551C235.112 73.5465 236.117 74.2663 237.183 74.8062C239.911 76.184 243.139 76.4407 246.091 75.6736C249.042 74.9036 251.709 73.1364 253.717 70.8115C255.948 68.2241 257.409 64.728 256.796 61.3469C256.291 58.553 254.46 56.1898 252.427 54.2396C250.393 52.2895 248.095 50.6166 246.236 48.4954C244.94 47.0173 243.854 45.2854 243.47 43.3471C243.087 41.4087 243.502 39.2373 244.862 37.8211C247.523 35.0478 252.598 35.9654 255.355 38.0867C255.402 38.1221 255.448 38.1604 255.498 38.1988C255.599 38.2784 255.698 38.364 255.797 38.4466C258.592 40.8659 260.076 44.6039 260.399 48.2564C260.433 48.6547 260.454 49.053 260.462 49.4513C261.012 58.1753 262.02 69.1475 269.98 74.343C275.209 77.7565 281.943 74.526 284.849 69.5104C286.537 66.5955 286.969 62.9696 286.017 59.7272C285.02 56.3461 282.379 53.862 279.968 51.4693C278.097 49.6135 276.206 47.6427 275.134 45.1822C274.192 43.0255 274.201 40.025 276.008 38.3168C276.976 37.4022 278.26 36.9449 279.86 36.9449C281.127 36.9449 282.112 37.1986 282.812 37.7061C283.512 38.2135 284.23 39.0101 284.962 40.0929C285.563 40.9072 286.112 41.5149 286.612 41.9221C287.112 42.3292 287.728 42.5328 288.463 42.5328C289.265 42.5328 289.979 42.2643 290.613 41.7185C291.246 41.1786 291.563 40.3997 291.563 39.3819C291.563 38.0277 290.778 36.9095 289.212 36.0273V36.0214Z" fill="#24221F"/>
<path d="M292.578 70.178C292.578 69.3847 292.736 68.694 293.054 68.106C293.371 67.5087 293.81 67.0513 294.37 66.734C294.93 66.4073 295.569 66.244 296.288 66.244C297.23 66.244 298.005 66.4773 298.612 66.944C299.228 67.4107 299.624 68.0453 299.802 68.848H298.752C298.621 68.2973 298.336 67.868 297.898 67.56C297.468 67.2427 296.932 67.084 296.288 67.084C295.774 67.084 295.312 67.2007 294.902 67.434C294.491 67.6673 294.164 68.0173 293.922 68.484C293.688 68.9413 293.572 69.506 293.572 70.178C293.572 70.85 293.688 71.4193 293.922 71.886C294.164 72.3527 294.491 72.7027 294.902 72.936C295.312 73.1693 295.774 73.286 296.288 73.286C296.932 73.286 297.468 73.132 297.898 72.824C298.336 72.5067 298.621 72.068 298.752 71.508H299.802C299.624 72.292 299.228 72.922 298.612 73.398C297.996 73.874 297.221 74.112 296.288 74.112C295.569 74.112 294.93 73.9533 294.37 73.636C293.81 73.3093 293.371 72.852 293.054 72.264C292.736 71.6667 292.578 70.9713 292.578 70.178ZM304.958 74.112C304.239 74.112 303.59 73.9533 303.012 73.636C302.442 73.3093 301.99 72.852 301.654 72.264C301.327 71.6667 301.164 70.9713 301.164 70.178C301.164 69.3847 301.332 68.694 301.668 68.106C302.004 67.5087 302.461 67.0513 303.04 66.734C303.618 66.4073 304.267 66.244 304.986 66.244C305.704 66.244 306.353 66.4073 306.932 66.734C307.52 67.0513 307.977 67.5087 308.304 68.106C308.64 68.694 308.808 69.3847 308.808 70.178C308.808 70.962 308.64 71.6527 308.304 72.25C307.968 72.8473 307.506 73.3093 306.918 73.636C306.33 73.9533 305.676 74.112 304.958 74.112ZM304.958 73.258C305.462 73.258 305.928 73.146 306.358 72.922C306.787 72.6887 307.132 72.3433 307.394 71.886C307.664 71.4193 307.8 70.85 307.8 70.178C307.8 69.506 307.669 68.9413 307.408 68.484C307.146 68.0173 306.801 67.672 306.372 67.448C305.942 67.2147 305.476 67.098 304.972 67.098C304.468 67.098 304.001 67.2147 303.572 67.448C303.142 67.672 302.797 68.0173 302.536 68.484C302.284 68.9413 302.158 69.506 302.158 70.178C302.158 70.85 302.284 71.4193 302.536 71.886C302.797 72.3433 303.138 72.6887 303.558 72.922C303.987 73.146 304.454 73.258 304.958 73.258ZM310.762 74.07C310.557 74.07 310.384 74 310.244 73.86C310.113 73.72 310.048 73.5473 310.048 73.342C310.048 73.1367 310.113 72.9687 310.244 72.838C310.384 72.698 310.557 72.628 310.762 72.628C310.958 72.628 311.121 72.698 311.252 72.838C311.392 72.9687 311.462 73.1367 311.462 73.342C311.462 73.5473 311.392 73.72 311.252 73.86C311.121 74 310.958 74.07 310.762 74.07Z" fill="#24221F"/>
</svg>
